<svg width="171" height="40" viewBox="0 0 171 40" fill="none" xmlns="http://www.w3.org/2000/svg">
<path d="M50.0381 30.3381C50.9156 30.3381 51.6975 30.1919 52.3838 29.8994C53.0813 29.6069 53.6663 29.1962 54.1388 28.6675C54.6113 28.1387 54.9713 27.4975 55.2188 26.7437C55.4775 25.99 55.6069 25.1462 55.6069 24.2125V9.59875H60.1463V24.2125C60.1463 25.6637 59.91 27.0081 59.4375 28.2456C58.9763 29.4719 58.3069 30.535 57.4294 31.435C56.5631 32.3237 55.5056 33.0212 54.2569 33.5275C53.0081 34.0225 51.6019 34.27 50.0381 34.27C48.4631 34.27 47.0513 34.0225 45.8025 33.5275C44.5538 33.0212 43.4906 32.3237 42.6131 31.435C41.7469 30.535 41.0775 29.4719 40.605 28.2456C40.1438 27.0081 39.9131 25.6637 39.9131 24.2125V9.59875H44.4525V24.1956C44.4525 25.1294 44.5763 25.9731 44.8238 26.7269C45.0825 27.4806 45.4481 28.1275 45.9206 28.6675C46.4044 29.1962 46.9894 29.6069 47.6756 29.8994C48.3731 30.1919 49.1606 30.3381 50.0381 30.3381ZM67.9454 18.8125C68.2942 18.4637 68.6598 18.1431 69.0423 17.8506C69.436 17.5469 69.8467 17.2937 70.2742 17.0912C70.7129 16.8775 71.1798 16.7144 71.6748 16.6019C72.1698 16.4781 72.7098 16.4162 73.2948 16.4162C74.2398 16.4162 75.0779 16.5794 75.8092 16.9056C76.5404 17.2206 77.1479 17.6706 77.6317 18.2556C78.1267 18.8294 78.4979 19.5212 78.7454 20.3312C79.0042 21.13 79.1335 22.0131 79.1335 22.9806V34H74.9654V22.9806C74.9654 21.9231 74.7235 21.1075 74.2398 20.5337C73.756 19.9487 73.0192 19.6562 72.0292 19.6562C71.3092 19.6562 70.6342 19.8194 70.0042 20.1456C69.3742 20.4719 68.7779 20.9162 68.2154 21.4787V34H64.0473V16.6862H66.5954C67.1354 16.6862 67.4898 16.9394 67.6585 17.4456L67.9454 18.8125ZM87.4176 16.6862V34H83.2326V16.6862H87.4176ZM87.9913 11.6406C87.9913 12.0006 87.9182 12.3381 87.7719 12.6531C87.6257 12.9681 87.4288 13.2437 87.1813 13.48C86.9451 13.7162 86.6638 13.9075 86.3376 14.0537C86.0113 14.1887 85.6626 14.2562 85.2913 14.2562C84.9313 14.2562 84.5882 14.1887 84.2619 14.0537C83.9469 13.9075 83.6713 13.7162 83.4351 13.48C83.1988 13.2437 83.0076 12.9681 82.8613 12.6531C82.7263 12.3381 82.6588 12.0006 82.6588 11.6406C82.6588 11.2694 82.7263 10.9206 82.8613 10.5944C83.0076 10.2681 83.1988 9.98687 83.4351 9.75062C83.6713 9.51437 83.9469 9.32875 84.2619 9.19375C84.5882 9.0475 84.9313 8.97437 85.2913 8.97437C85.6626 8.97437 86.0113 9.0475 86.3376 9.19375C86.6638 9.32875 86.9451 9.51437 87.1813 9.75062C87.4288 9.98687 87.6257 10.2681 87.7719 10.5944C87.9182 10.9206 87.9913 11.2694 87.9913 11.6406ZM113.762 21.7994C113.762 23.5881 113.464 25.2306 112.867 26.7269C112.271 28.2231 111.433 29.5112 110.353 30.5912C109.273 31.6712 107.974 32.5094 106.455 33.1056C104.936 33.7019 103.249 34 101.392 34H92.0943V9.59875H101.392C103.249 9.59875 104.936 9.9025 106.455 10.51C107.974 11.1062 109.273 11.9444 110.353 13.0244C111.433 14.0931 112.271 15.3756 112.867 16.8719C113.464 18.3681 113.762 20.0106 113.762 21.7994ZM109.104 21.7994C109.104 20.4606 108.924 19.2625 108.564 18.205C108.216 17.1362 107.704 16.2362 107.029 15.505C106.365 14.7625 105.555 14.1944 104.599 13.8006C103.654 13.4069 102.585 13.21 101.392 13.21H96.6506V30.3887H101.392C102.585 30.3887 103.654 30.1919 104.599 29.7981C105.555 29.4044 106.365 28.8419 107.029 28.1106C107.704 27.3681 108.216 26.4681 108.564 25.4106C108.924 24.3419 109.104 23.1381 109.104 21.7994ZM120.746 19.69C121.286 18.655 121.928 17.845 122.67 17.26C123.413 16.6637 124.29 16.3656 125.303 16.3656C126.101 16.3656 126.743 16.54 127.226 16.8887L126.956 20.0106C126.9 20.2131 126.816 20.3594 126.703 20.4494C126.602 20.5281 126.461 20.5675 126.281 20.5675C126.113 20.5675 125.86 20.5394 125.522 20.4831C125.196 20.4269 124.875 20.3987 124.56 20.3987C124.099 20.3987 123.688 20.4662 123.328 20.6012C122.968 20.7362 122.642 20.9331 122.35 21.1919C122.068 21.4394 121.815 21.7431 121.59 22.1031C121.376 22.4631 121.174 22.8737 120.983 23.335V34H116.815V16.6862H119.261C119.689 16.6862 119.987 16.765 120.156 16.9225C120.325 17.0687 120.437 17.3387 120.493 17.7325L120.746 19.69ZM133.725 16.6862V34H129.54V16.6862H133.725ZM134.299 11.6406C134.299 12.0006 134.226 12.3381 134.079 12.6531C133.933 12.9681 133.736 13.2437 133.489 13.48C133.252 13.7162 132.971 13.9075 132.645 14.0537C132.319 14.1887 131.97 14.2562 131.599 14.2562C131.239 14.2562 130.896 14.1887 130.569 14.0537C130.254 13.9075 129.979 13.7162 129.742 13.48C129.506 13.2437 129.315 12.9681 129.169 12.6531C129.034 12.3381 128.966 12.0006 128.966 11.6406C128.966 11.2694 129.034 10.9206 129.169 10.5944C129.315 10.2681 129.506 9.98687 129.742 9.75062C129.979 9.51437 130.254 9.32875 130.569 9.19375C130.896 9.0475 131.239 8.97437 131.599 8.97437C131.97 8.97437 132.319 9.0475 132.645 9.19375C132.971 9.32875 133.252 9.51437 133.489 9.75062C133.736 9.98687 133.933 10.2681 134.079 10.5944C134.226 10.9206 134.299 11.2694 134.299 11.6406ZM153.584 16.6862L146.716 34H142.936L136.067 16.6862H139.51C139.825 16.6862 140.084 16.7594 140.286 16.9056C140.5 17.0519 140.641 17.2375 140.708 17.4625L144.049 26.71C144.229 27.25 144.387 27.7787 144.522 28.2962C144.657 28.8137 144.775 29.3312 144.876 29.8487C144.989 29.3312 145.112 28.8137 145.247 28.2962C145.382 27.7787 145.546 27.25 145.737 26.71L149.146 17.4625C149.224 17.2375 149.365 17.0519 149.567 16.9056C149.77 16.7594 150.012 16.6862 150.293 16.6862H153.584ZM166.432 23.3519C166.432 22.8119 166.353 22.3056 166.196 21.8331C166.05 21.3494 165.825 20.9275 165.521 20.5675C165.217 20.2075 164.829 19.9262 164.356 19.7237C163.895 19.51 163.355 19.4031 162.736 19.4031C161.533 19.4031 160.582 19.7462 159.885 20.4325C159.198 21.1187 158.76 22.0919 158.568 23.3519H166.432ZM158.484 25.8662C158.551 26.755 158.709 27.5256 158.956 28.1781C159.204 28.8194 159.53 29.3537 159.935 29.7812C160.34 30.1975 160.818 30.5125 161.37 30.7262C161.932 30.9287 162.551 31.03 163.226 31.03C163.901 31.03 164.48 30.9512 164.964 30.7937C165.459 30.6362 165.886 30.4619 166.246 30.2706C166.618 30.0794 166.938 29.905 167.208 29.7475C167.49 29.59 167.76 29.5112 168.018 29.5112C168.367 29.5112 168.626 29.6406 168.795 29.8994L169.993 31.4181C169.531 31.9581 169.014 32.4137 168.44 32.785C167.866 33.145 167.265 33.4375 166.635 33.6625C166.016 33.8762 165.38 34.0281 164.728 34.1181C164.086 34.2081 163.462 34.2531 162.855 34.2531C161.651 34.2531 160.531 34.0562 159.496 33.6625C158.461 33.2575 157.561 32.6669 156.796 31.8906C156.031 31.1031 155.43 30.1356 154.991 28.9881C154.552 27.8294 154.333 26.4906 154.333 24.9719C154.333 23.7906 154.524 22.6825 154.906 21.6475C155.289 20.6012 155.835 19.6956 156.543 18.9306C157.263 18.1544 158.135 17.5412 159.159 17.0912C160.194 16.6412 161.358 16.4162 162.652 16.4162C163.743 16.4162 164.75 16.5906 165.673 16.9394C166.595 17.2881 167.388 17.8 168.052 18.475C168.716 19.1387 169.233 19.96 169.605 20.9387C169.987 21.9062 170.178 23.0144 170.178 24.2631C170.178 24.8931 170.111 25.3206 169.976 25.5456C169.841 25.7594 169.582 25.8662 169.2 25.8662H158.484Z" fill="#FF4605"/>
<path fill-rule="evenodd" clip-rule="evenodd" d="M26.0352 10.7884C26.3363 9.57155 24.8584 8.71827 23.9551 9.58748L19.5753 13.8019L13.5594 10.3286C12.8389 9.91266 11.9208 10.3034 11.721 11.1109L7.53521 28.0275C7.23411 29.2444 8.71202 30.0976 9.61534 29.2284L13.9951 25.014L20.011 28.4873C20.7315 28.9033 21.6496 28.5126 21.8494 27.705L26.0352 10.7884ZM13.9951 25.014L22.1726 17.1452C22.7721 16.5684 22.6514 15.5779 21.9309 15.1619L19.5753 13.8019L11.3978 21.6707C10.7983 22.2476 10.919 23.2381 11.6395 23.654L13.9951 25.014Z" fill="#FF4605"/>
</svg>
